<?xml version="1.0" encoding="UTF-8"?>
<svg id="_レイヤー_1" data-name="レイヤー_1" xmlns="http://www.w3.org/2000/svg" version="1.1" viewBox="0 0 382.7 114.1">
  <!-- Generator: Adobe Illustrator 30.2.1, SVG Export Plug-In . SVG Version: 2.1.1 Build 1)  -->
  <defs>
    <style>
      .st0 {
        fill: #1f1614;
      }
    </style>
  </defs>
  <path class="st0" d="M38.2,69v-24.8h2.3v22.8h14.7v2h-17Z"/>
  <g>
    <path class="st0" d="M65.8,44.2h2.3v14.8c0,3.1.6,5.3,1.7,6.6,1.1,1.4,3,2,5.5,2s2.5-.2,3.4-.5c.9-.4,1.7-.9,2.3-1.6.6-.7,1-1.6,1.2-2.7.3-1.1.4-2.4.4-3.8v-14.8h2.3v15.4c0,3.2-.8,5.7-2.4,7.4-1.6,1.7-4,2.6-7.2,2.6s-5.6-.9-7.2-2.6c-1.6-1.7-2.4-4.2-2.4-7.4v-15.4Z"/>
    <path class="st0" d="M99.2,57.7v11.2h-2.3v-24.8h9.7c2.7,0,4.8.5,6.3,1.5,1.4,1,2.2,2.7,2.2,5s-.3,2.8-.9,3.7c-.6.9-1.7,1.7-3.1,2.3.7.3,1.3.6,1.7,1.1.4.5.7,1,.9,1.7.2.6.3,1.3.4,2s0,1.4.1,2c0,.9,0,1.7.1,2.3,0,.6.1,1.1.2,1.5,0,.4.2.7.3.9.1.2.3.4.4.5v.2h-2.6c-.3-.4-.4-1-.5-1.7-.1-.7-.2-1.5-.2-2.3,0-.8-.1-1.6-.1-2.3,0-.8,0-1.4-.2-1.9-.1-.7-.4-1.2-.7-1.6-.3-.4-.7-.7-1.1-.9-.4-.2-.9-.3-1.5-.4-.5,0-1.1-.1-1.7-.1h-7.4ZM106.5,55.8c.9,0,1.7,0,2.4-.3.7-.2,1.4-.5,1.9-.9.6-.4,1-.9,1.3-1.5.3-.6.5-1.4.5-2.2s-.2-1.7-.5-2.3c-.3-.6-.8-1.1-1.3-1.4-.6-.3-1.2-.6-1.9-.7-.7-.1-1.5-.2-2.3-.2h-7.4v9.5h7.3Z"/>
    <path class="st0" d="M126.6,69v-24.8h16v2h-13.6v8.9h12.4v2h-12.4v11.8h-2.3Z"/>
    <path class="st0" d="M175.7,58.2v-2h10.6v12.8h-2v-4.2c-.4.7-.9,1.4-1.5,2-.6.6-1.2,1.1-1.9,1.5-.7.4-1.6.8-2.5,1-1,.2-2.1.3-3.3.3s-3-.3-4.3-.8c-1.3-.6-2.5-1.4-3.4-2.5-1-1.1-1.7-2.5-2.3-4.1-.5-1.7-.8-3.6-.8-5.8s.2-3.5.7-5.1c.5-1.6,1.2-2.9,2.1-4.1,1-1.2,2.1-2.1,3.6-2.7,1.4-.7,3.1-1,5.1-1s2.5.2,3.7.5c1.1.3,2.2.8,3.1,1.5.9.7,1.7,1.5,2.3,2.4.6,1,1.1,2.1,1.3,3.5h-2.4c-.2-.9-.6-1.7-1-2.5-.5-.7-1.1-1.3-1.8-1.8-.7-.5-1.5-.9-2.3-1.1-.8-.3-1.7-.4-2.6-.4-1.6,0-3,.3-4.2.9-1.2.6-2.1,1.4-2.9,2.4-.8,1-1.3,2.3-1.7,3.7-.4,1.5-.5,3.1-.5,4.8s.2,2.7.6,3.9c.4,1.2,1,2.3,1.8,3.3.8.9,1.7,1.7,2.8,2.2,1.1.6,2.4.8,3.8.8s1.4,0,2.1-.2c.7-.1,1.4-.4,2.1-.7s1.3-.8,1.9-1.3c.6-.6,1.1-1.2,1.5-2,.4-.8.7-1.6.8-2.4.1-.8.2-1.7.3-2.7h-8.4Z"/>
    <path class="st0" d="M196.4,69l9.7-24.8h2.6l9.5,24.8h-2.4l-2.9-7.8h-11.3l-2.9,7.8h-2.4ZM202.5,59.2h9.7l-4.9-13-4.9,13Z"/>
    <path class="st0" d="M228.3,69v-24.8h2.3v22.8h13.3v2h-15.6Z"/>
    <path class="st0" d="M254.2,69v-24.8h2.3v22.8h13.3v2h-15.6Z"/>
    <path class="st0" d="M279.1,69v-24.8h16.5v2h-14.1v8.9h12.8v2h-12.8v9.8h14.5v2h-16.8Z"/>
    <path class="st0" d="M308.8,57.7v11.2h-2.3v-24.8h9.7c2.7,0,4.8.5,6.3,1.5,1.4,1,2.2,2.7,2.2,5s-.3,2.8-.9,3.7c-.6.9-1.7,1.7-3.1,2.3.7.3,1.3.6,1.7,1.1.4.5.7,1,.9,1.7.2.6.3,1.3.4,2s0,1.4.1,2c0,.9,0,1.7.1,2.3,0,.6.1,1.1.2,1.5,0,.4.2.7.3.9.1.2.3.4.4.5v.2h-2.6c-.3-.4-.4-1-.5-1.7-.1-.7-.2-1.5-.2-2.3,0-.8-.1-1.6-.1-2.3,0-.8,0-1.4-.2-1.9-.1-.7-.4-1.2-.7-1.6-.3-.4-.7-.7-1.1-.9-.4-.2-.9-.3-1.5-.4-.5,0-1.1-.1-1.7-.1h-7.4ZM316.1,55.8c.9,0,1.7,0,2.4-.3.7-.2,1.4-.5,1.9-.9.6-.4,1-.9,1.3-1.5.3-.6.5-1.4.5-2.2s-.2-1.7-.5-2.3c-.3-.6-.8-1.1-1.3-1.4-.6-.3-1.2-.6-1.9-.7-.7-.1-1.5-.2-2.3-.2h-7.4v9.5h7.3Z"/>
    <path class="st0" d="M342.9,56.2l7.5-11.9h2.7l-9,14v10.8h-2.3v-10.6l-8.8-14.1h2.7l7.3,11.9Z"/>
  </g>
</svg>